PathFileType	4	(X/Y/Z)	/Users/niels/Desktop/University/Third Semester/Perception and Action/Exam/Gymnastics Motion Tracking/Code for Gym Tracking/Analyzed Data/Webcam_Backflip/id7_1_trajectory_Sports2D/id7_1_trajectory_Sports2D_px_person00.trc
DataRate	CameraRate	NumFrames	NumMarkers	Units	OrigDataRate	OrigDataStartFrame	OrigNumFrames
29.81132075471698	29.81132075471698	12	22	m	29.81132075471698	119	159
Frame#	Time	Hip			RHip			RKnee			RAnkle			RBigToe			RSmallToe			RHeel			LHip			LKnee			LAnkle			LBigToe			LSmallToe			LHeel			Neck			Head			Nose			RShoulder			RElbow			RWrist			LShoulder			LElbow			LWrist		
		X1	Y1	Z1	X2	Y2	Z2	X3	Y3	Z3	X4	Y4	Z4	X5	Y5	Z5	X6	Y6	Z6	X7	Y7	Z7	X8	Y8	Z8	X9	Y9	Z9	X10	Y10	Z10	X11	Y11	Z11	X12	Y12	Z12	X13	Y13	Z13	X14	Y14	Z14	X15	Y15	Z15	X16	Y16	Z16	X17	Y17	Z17	X18	Y18	Z18	X19	Y19	Z19	X20	Y20	Z20	X21	Y21	Z21	X22	Y22	Z22
119	3.991772151898734	0.8154913265163054	-0.5665213707601794	0.0	0.7878698494281582	-0.5707750196099699	0.0	0.7836902487209656	-0.6840820236987573	0.0	0.7660249887673265	-0.7893189435624787	0.0	0.7699870227759359	-0.816164158786276	0.0	0.7515365993547337	-0.8133974827348963	0.0	0.7650070624774673	-0.7987780430661708	0.0	0.8430414911996368	-0.5686468280467539	0.0	0.8478349846660895	-0.6861877610324469	0.0	0.8566882707288905	-0.8042457282987125	0.0	0.8556295488025356	-0.8243944841561865	0.0	0.8724917184142785	-0.8207224370857954	0.0	0.853623961821849	-0.8183050223723692	0.0	0.811930882566816	-0.39834239553320744	0.0	0.8066097887912332	-0.3241959885796535	0.0	0.8127956585320514	-0.36579755802866	0.0	0.7668980596710437	-0.4219355638224404	0.0	0.7567484956370975	-0.49939158403809764	0.0	0.77291420041651	-0.559709191720093	0.0	0.858034058130375	-0.4198416539594529	0.0	0.8859673197810949	-0.4902383948172587	0.0	0.9289921474634986	-0.5502515429282203	0.0
120	4.025316455696203	0.8191775843011441	-0.578810421482021	0.0	0.791594739572739	-0.5832432766363836	0.0	0.7854707070570068	-0.696238300905091	0.0	0.7656735984595623	-0.7956775537303734	0.0	0.7705471108540908	-0.8241187188765307	0.0	0.7520388251632769	-0.8207900941023956	0.0	0.764251001444569	-0.8042389999217826	0.0	0.8469644844139432	-0.5816548709912787	0.0	0.84985299209042	-0.6997612152536727	0.0	0.8566658536766117	-0.8157961785825734	0.0	0.8559184757584263	-0.8369810746574146	0.0	0.8725650555857392	-0.8333981587238334	0.0	0.8540055964579131	-0.829600608733004	0.0	0.8173604222158084	-0.41012227486217556	0.0	0.8123948332346893	-0.3374289990504665	0.0	0.817865027592593	-0.37704310551278214	0.0	0.7719732498232016	-0.4345195227036153	0.0	0.7611556335086778	-0.5119333085763428	0.0	0.7735979748126566	-0.5720848112910404	0.0	0.8635038021424433	-0.43290505660018586	0.0	0.891910850402162	-0.5037893187945203	0.0	0.9345087478452122	-0.5642500245069089	0.0
121	4.058860759493671	0.8230678594636411	-0.5900725573856161	0.0	0.7954449049253082	-0.5945464236657376	0.0	0.7874612725876811	-0.7082724363217306	0.0	0.7656154412703191	-0.8008787107017049	0.0	0.7708907884115026	-0.8310024676884612	0.0	0.7524691161643572	-0.8268685310552866	0.0	0.7639308763916537	-0.8082670686028413	0.0	0.8511929662514294	-0.5935142116942491	0.0	0.85167724415376	-0.7123822639621734	0.0	0.8564297941953456	-0.8267301942851367	0.0	0.8557008546497573	-0.8501815739075431	0.0	0.8724041316689004	-0.8469461534400349	0.0	0.8541869945838938	-0.840021905025721	0.0	0.8226995346171596	-0.4210311020790644	0.0	0.8183308094035554	-0.34984882067558554	0.0	0.8226638657589277	-0.3874109489316627	0.0	0.7769016575693327	-0.446357715876965	0.0	0.7658467059779734	-0.5239271353264998	0.0	0.7736274098815608	-0.5845594031446956	0.0	0.868888098012831	-0.44520654737230253	0.0	0.8968593704720405	-0.5173158676655405	0.0	0.9378169456697212	-0.5793565601227236	0.0
122	4.092405063291139	0.8270245304934498	-0.5993274466654749	0.0	0.799210102925947	-0.6037182623162399	0.0	0.7896690955961538	-0.7189997313033903	0.0	0.7661241000435546	-0.804120654540311	0.0	0.7710391704163921	-0.8356906054596775	0.0	0.7528584425702135	-0.830599490420012	0.0	0.7643561676789206	-0.8101268183921759	0.0	0.8555338472338445	-0.6032268687592502	0.0	0.8534579016664664	-0.7227769295134067	0.0	0.8561472057792809	-0.8360113683396018	0.0	0.8550365081295904	-0.8626291722038081	0.0	0.8718837383063394	-0.8598590624105262	0.0	0.8542145879667781	-0.8485675113666784	0.0	0.8276987064871776	-0.4299625166166327	0.0	0.8242781632404588	-0.3599483099712058	0.0	0.8271058862593222	-0.39588117044580867	0.0	0.7814677829624305	-0.45617018455771036	0.0	0.7706067757428497	-0.5340839631365601	0.0	0.7731820312036324	-0.5960953384514067	0.0	0.8739797239188921	-0.4554891305488845	0.0	0.9003925458371591	-0.529508734967142	0.0	0.9384439858205456	-0.5941160635842412	0.0
123	4.125949367088608	0.8308745161495289	-0.605747694542035	0.0	0.802774810939622	-0.6099943504310313	0.0	0.7921275160474045	-0.7272252944073019	0.0	0.7674430368090973	-0.804498211725873	0.0	0.7711776872515508	-0.8372270385800967	0.0	0.7533966051218872	-0.8311102797534206	0.0	0.7657281787494623	-0.809041602605389	0.0	0.859692408789247	-0.6100153729617112	0.0	0.8552799041982231	-0.7299986133292333	0.0	0.8559355097907995	-0.8425955434404443	0.0	0.8541689067610075	-0.872188355855412	0.0	0.8710313904530685	-0.8698014394316238	0.0	0.8540802637208877	-0.8543065564381553	0.0	0.8321472147108626	-0.4359886354393053	0.0	0.8299919631094804	-0.36656198290623504	0.0	0.8311326312851973	-0.40159510876004356	0.0	0.7855207925817064	-0.4628795009033762	0.0	0.7751769829779234	-0.541322974349575	0.0	0.7724799332982173	-0.6055775420464847	0.0	0.8785862229638227	-0.46267173534888656	0.0	0.902275433346891	-0.5390949686963914	0.0	0.9360652694248552	-0.6068151155551209	0.0
124	4.159493670886076	0.834455852104058	-0.6087313998646237	0.0	0.8061544113254102	-0.612820197493483	0.0	0.7949071136044643	-0.73190039978757	0.0	0.7698308027260449	-0.8013812342133987	0.0	0.77166594748756	-0.8351845111613764	0.0	0.7544623316280663	-0.8280481732138412	0.0	0.7682664064741608	-0.8045374086248857	0.0	0.8633522966238266	-0.6133318340311845	0.0	0.8571122024778974	-0.733569735679757	0.0	0.8558424676057327	-0.8457299939938853	0.0	0.8533412652048649	-0.8767625276091885	0.0	0.8700021871296078	-0.8745404605327906	0.0	0.8538469291625825	-0.8566272201046778	0.0	0.8359554768121593	-0.4385002560378812	0.0	0.8351979958482493	-0.36908817819676404	0.0	0.834747891320429	-0.40399424075377927	0.0	0.7890318196405217	-0.46580277347093924	0.0	0.7793339716222454	-0.5449319778263948	0.0	0.7717539393092927	-0.6119482097129194	0.0	0.8825698045333406	-0.4660030344873699	0.0	0.9025534235088238	-0.5450167772563564	0.0	0.9305408943449047	-0.6157421852658118	0.0
125	4.193037974683544	0.8376198554974258	-0.6079654653060896	0.0	0.8093778700515327	-0.6118876209987174	0.0	0.7981172098105669	-0.7322393057242269	0.0	0.7735620296355583	-0.7948519512263456	0.0	0.7731150654332724	-0.8298600932722829	0.0	0.7566581451334737	-0.8218342009275336	0.0	0.7722151610229888	-0.7969301075908786	0.0	0.8662789379896202	-0.6128726323494124	0.0	0.8588379335142721	-0.733429058159778	0.0	0.8558579263774178	-0.8451808878266147	0.0	0.8526649148413595	-0.87534369371684	0.0	0.8690274871798146	-0.8730832022215733	0.0	0.8536702733614387	-0.8554368413980166	0.0	0.8391685037932453	-0.43733090522801854	0.0	0.8397252076509326	-0.3674764637931315	0.0	0.8380152832321592	-0.40290540679562725	0.0	0.792042520485916	-0.4647696123872312	0.0	0.7829316703318248	-0.5446621122378856	0.0	0.7712139007614162	-0.6144065087853693	0.0	0.8858963919596956	-0.4652119113538493	0.0	0.9015479326446526	-0.5465985314430898	0.0	0.9219834625814296	-0.6194326612501532	0.0
126	4.226582278481012	0.8402450537078944	-0.6034940212718818	0.0	0.8123511109596505	-0.6072347554482549	0.0	0.801858307657407	-0.727908643709286	0.0	0.7788061325432367	-0.7860072340749126	0.0	0.7763169130403786	-0.8223096168046726	0.0	0.7606994220009926	-0.8136799573532587	0.0	0.7777228278696143	-0.7876622908659134	0.0	0.8684084990127028	-0.6086562871650255	0.0	0.8603374024506725	-0.7298393413724348	0.0	0.8559634007494596	-0.8412530775375194	0.0	0.8521156975838176	-0.8684920281604224	0.0	0.8683251581291116	-0.8661495085224764	0.0	0.8537284766958166	-0.8511424068027769	0.0	0.8418997280757357	-0.4327844732259311	0.0	0.8435740958679938	-0.36210983332006164	0.0	0.841010206583107	-0.3985673681209915	0.0	0.7945923618679711	-0.4600911217592892	0.0	0.7859167745577643	-0.540723749629027	0.0	0.7710423920011503	-0.6126116491597365	0.0	0.8886420815012568	-0.46056941038309135	0.0	0.8997681978262292	-0.5437025494278335	0.0	0.9108732351834954	-0.6169113990746615	0.0
127	4.260126582278481	0.8422825874184189	-0.5958043648896855	0.0	0.8148631376136165	-0.5993334614083287	0.0	0.8061520545319071	-0.7192267587012027	0.0	0.7854965755717246	-0.7767272420978053	0.0	0.7819928274155483	-0.8141042423690917	0.0	0.7671740385393995	-0.8052955871799142	0.0	0.7847003880423365	-0.7789441233429067	0.0	0.869865521085825	-0.6011199842183098	0.0	0.8615576762718978	-0.7233355170961403	0.0	0.856158805267143	-0.8346464286697396	0.0	0.8515685476690076	-0.8581932762033542	0.0	0.8679121538416	-0.8558942603703501	0.0	0.8541106873265216	-0.8444645802296299	0.0	0.8442685230871328	-0.4255100193134247	0.0	0.8468774474119776	-0.3537009529254239	0.0	0.8437902341147147	-0.39156300337134864	0.0	0.796716652297383	-0.4524260959195999	0.0	0.788311520521866	-0.5336772512311075	0.0	0.7713529116181649	-0.6068010743584665	0.0	0.8909605295088632	-0.4528047368276953	0.0	0.897794022559451	-0.5368148830094891	0.0	0.8980968536146319	-0.607904443952108	0.0
128	4.293670886075949	0.8437757306270234	-0.5858397671191315	0.0	0.8167324283280291	-0.5890855970380807	0.0	0.8109096495147559	-0.7071689876938962	0.0	0.793362590577338	-0.7687898262369733	0.0	0.7904818953610648	-0.8067271520573155	0.0	0.7762997742859926	-0.7982688695242149	0.0	0.7928118149706928	-0.7726412559776132	0.0	0.8708925111333956	-0.5911526438824882	0.0	0.8625196319749989	-0.7147120993932932	0.0	0.8564515397481622	-0.8263090463022549	0.0	0.8508763690146752	-0.8469962806882404	0.0	0.8675255872413804	-0.8448852482771906	0.0	0.8547648457453143	-0.8363050728919889	0.0	0.8464002667895885	-0.41632660206600913	0.0	0.8498126271977563	-0.34320165231799143	0.0	0.8464200566937854	-0.382682228285272	0.0	0.7984832530274032	-0.4426519565994496	0.0	0.7901912032562568	-0.5243141218855267	0.0	0.7721118192367072	-0.5977488701693485	0.0	0.8930289311448165	-0.4429360874830567	0.0	0.8961758061674862	-0.5270166752030938	0.0	0.8848175280085032	-0.5929606764210004	0.0
129	4.327215189873417	0.8448363103538469	-0.5748290880986678	0.0	0.817933216024263	-0.5776730438470593	0.0	0.8159577212620056	-0.6931246380066199	0.0	0.802056766180955	-0.7630676857125765	0.0	0.8014603676345171	-0.801045234593578	0.0	0.7877156460280572	-0.7934630746030026	0.0	0.801630238007014	-0.769373570781761	0.0	0.871731340977992	-0.5799828952275653	0.0	0.863282865344933	-0.7049427259548309	0.0	0.8568435860903992	-0.817292097606107	0.0	0.8500866268815989	-0.8369549624097201	0.0	0.8669098568133589	-0.8350264846701587	0.0	0.8555639796677605	-0.8276782563470043	0.0	0.8484196987299211	-0.4061320252235419	0.0	0.852523134905309	-0.33169062318827097	0.0	0.8489757341142654	-0.3727975047891329	0.0	0.7999875559822507	-0.43177523208034585	0.0	0.7916748301589377	-0.5135798635922783	0.0	0.7731626586948259	-0.5866197818998917	0.0	0.8949970155104215	-0.4321082213569763	0.0	0.8953301836211718	-0.5158220352424684	0.0	0.8722545566839859	-0.5734199929818161	0.0
130	4.360759493670886	0.8456180250673319	-0.5639981907831004	0.0	0.8185875434166258	-0.5663289026877405	0.0	0.8210979468265334	-0.6785956838883475	0.0	0.8111847772474681	-0.7595638505748343	0.0	0.813864342338594	-0.7973521504844326	0.0	0.8004054770280536	-0.7909853448201162	0.0	0.8107675230519515	-0.7686839875196921	0.0	0.8725283489827931	-0.5689267181315717	0.0	0.8639124354640653	-0.695001644764875	0.0	0.8573372158621737	-0.8085389720304729	0.0	0.8495984821933151	-0.8292120464614325	0.0	0.8662084042994118	-0.8272521881811061	0.0	0.8564175658285932	-0.8195440490889668	0.0	0.8504097046476332	-0.39586198793999755	0.0	0.855092062915871	-0.3202504750274016	0.0	0.8514894302334192	-0.36277967171989667	0.0	0.801331166853895	-0.42083661188044247	0.0	0.7928842807380982	-0.5024818491535102	0.0	0.7743421015363909	-0.5747585254926999	0.0	0.8969710252533748	-0.4214502532245147	0.0	0.8954374497584165	-0.5048381723538992	0.0	0.8615242762820129	-0.5511770958327706	0.0
